<?xml version="1.0" encoding="UTF-8"?><svg id="Layer_1" xmlns="http://www.w3.org/2000/svg" xmlns:xlink="http://www.w3.org/1999/xlink" viewBox="0 0 98.31 73.73"><defs><style>.cls-1{fill:url(#Balena);}</style><linearGradient id="Balena" x1="49.16" y1="0" x2="49.16" y2="73.73" gradientUnits="userSpaceOnUse"><stop offset="0" stop-color="#f91"/><stop offset=".17" stop-color="#ffa11a"/><stop offset=".45" stop-color="#ffb733"/><stop offset=".81" stop-color="#ffdb5c"/><stop offset="1" stop-color="#fff176"/></linearGradient></defs><path class="cls-1" d="M12.29,0C5.5,0,0,5.5,0,12.29v6.14c0,6.79,5.5,12.29,12.29,12.29h6.14v12.29h-6.14c-6.79,0-12.29,5.5-12.29,12.29v6.14c0,6.79,5.5,12.29,12.29,12.29H86.02c6.79,0,12.29-5.5,12.29-12.29v-6.14c0-6.79-5.5-12.29-12.29-12.29h-6.14v-12.29h6.14c6.79,0,12.29-5.5,12.29-12.29v-6.14c0-6.79-5.5-12.29-12.29-12.29H12.29Zm3.07,18.43c-1.7,0-3.07-1.38-3.07-3.07s1.38-3.07,3.07-3.07,3.07,1.38,3.07,3.07-1.38,3.07-3.07,3.07Zm12.29,0c-1.7,0-3.07-1.38-3.07-3.07s1.38-3.07,3.07-3.07,3.07,1.38,3.07,3.07-1.38,3.07-3.07,3.07ZM15.36,61.44c-1.7,0-3.07-1.38-3.07-3.07s1.38-3.07,3.07-3.07,3.07,1.38,3.07,3.07-1.38,3.07-3.07,3.07Zm12.29,0c-1.7,0-3.07-1.38-3.07-3.07s1.38-3.07,3.07-3.07,3.07,1.38,3.07,3.07-1.38,3.07-3.07,3.07Zm46.08-30.72v12.29H24.58v-12.29h49.16Z"/></svg>