<?xml version="1.0" encoding="UTF-8"?><svg id="Layer_1" xmlns="http://www.w3.org/2000/svg" xmlns:xlink="http://www.w3.org/1999/xlink" viewBox="0 0 96.61 93"><defs><style>.cls-1{fill:url(#linear-gradient);}.cls-2{fill:url(#linear-gradient-2);}</style><linearGradient id="linear-gradient" x1="48.3" y1="93" x2="48.3" y2="0" gradientUnits="userSpaceOnUse"><stop offset="0" stop-color="#fff176"/><stop offset="1" stop-color="#f91"/></linearGradient><linearGradient id="linear-gradient-2" y1="71.34" x2="48.3" y2="39.7" xlink:href="#linear-gradient"/></defs><path class="cls-1" d="M85.26,61.36l10.35,5.18c1.33,.66,1.33,2.56,0,3.22l-45.69,22.85c-1.02,.51-2.21,.51-3.22,0L1,69.77c-.89-.45-1.25-1.53-.8-2.42,.17-.35,.45-.63,.8-.8l10.36-5.18,32.1,16.05c3.05,1.52,6.64,1.52,9.68,0l32.1-16.06h0ZM46.69,.38c1.02-.51,2.21-.51,3.22,0l45.69,22.85c.89,.45,1.25,1.54,.8,2.44-.17,.34-.45,.62-.8,.8l-45.69,22.84c-1.02,.51-2.21,.51-3.22,0L1,26.46c-.89-.45-1.25-1.53-.81-2.42,.17-.35,.46-.63,.81-.81L46.69,.38Z"/><path class="cls-2" d="M85.25,39.7l10.35,5.18c1.33,.66,1.33,2.56,0,3.22l-45.69,22.85c-1.02,.51-2.21,.51-3.22,0L1,48.11c-.89-.45-1.25-1.53-.8-2.42,.17-.35,.45-.63,.8-.8l10.36-5.18,32.1,16.05c3.05,1.52,6.64,1.52,9.68,0l32.1-16.05h0Z"/></svg>