<?xml version="1.0" encoding="UTF-8"?><svg id="Layer_1" xmlns="http://www.w3.org/2000/svg" xmlns:xlink="http://www.w3.org/1999/xlink" viewBox="0 0 98 73.5"><defs><style>.cls-1{fill:url(#linear-gradient);}.cls-2{fill:url(#linear-gradient-2);}</style><linearGradient id="linear-gradient" x1="49" y1="73.5" x2="49" y2="0" gradientUnits="userSpaceOnUse"><stop offset="0" stop-color="#fff176"/><stop offset=".17" stop-color="#ffe86c"/><stop offset=".45" stop-color="#ffd253"/><stop offset=".81" stop-color="#ffae2a"/><stop offset="1" stop-color="#f91"/></linearGradient><linearGradient id="linear-gradient-2" x1="48.95" y1="65.98" x2="49.06" y2="4.73" xlink:href="#linear-gradient"/></defs><path class="cls-1" d="M88.81,6.12c1.69,0,3.06,1.37,3.06,3.06v55.13c0,1.69-1.37,3.06-3.06,3.06H9.19c-1.69,0-3.06-1.37-3.06-3.06V9.19c0-1.69,1.37-3.06,3.06-3.06H88.81ZM9.19,0C4.11,0,0,4.11,0,9.19v55.13c0,5.07,4.11,9.19,9.19,9.19H88.81c5.07,0,9.19-4.11,9.19-9.19V9.19c0-5.07-4.11-9.19-9.19-9.19H9.19Z"/><path class="cls-2" d="M30.63,36.75c0-1.69,1.37-3.06,3.06-3.06h42.87c1.69,0,3.06,1.37,3.06,3.06s-1.37,3.06-3.06,3.06H33.69c-1.69,0-3.06-1.37-3.06-3.06Zm0-15.31c0-1.69,1.37-3.06,3.06-3.06h42.87c1.69,0,3.06,1.37,3.06,3.06s-1.37,3.06-3.06,3.06H33.69c-1.69,0-3.06-1.37-3.06-3.06Zm0,30.63c0-1.69,1.37-3.06,3.06-3.06h42.87c1.69,0,3.06,1.37,3.06,3.06s-1.37,3.06-3.06,3.06H33.69c-1.69,0-3.06-1.37-3.06-3.06Zm-6.13-30.63c0,1.69-1.37,3.06-3.06,3.06s-3.06-1.37-3.06-3.06,1.37-3.06,3.06-3.06,3.06,1.37,3.06,3.06Zm0,15.31c0,1.69-1.37,3.06-3.06,3.06s-3.06-1.37-3.06-3.06,1.37-3.06,3.06-3.06,3.06,1.37,3.06,3.06Zm0,15.31c0,1.69-1.37,3.06-3.06,3.06s-3.06-1.37-3.06-3.06,1.37-3.06,3.06-3.06,3.06,1.37,3.06,3.06Z"/></svg>