<?xml version="1.0" encoding="UTF-8"?><svg id="Layer_1" xmlns="http://www.w3.org/2000/svg" xmlns:xlink="http://www.w3.org/1999/xlink" viewBox="0 0 98 73.28"><defs><style>.cls-1{fill:url(#linear-gradient);fill-rule:evenodd;}</style><linearGradient id="linear-gradient" x1="49" y1="73.28" x2="49" y2="0" gradientUnits="userSpaceOnUse"><stop offset="0" stop-color="#fff176"/><stop offset="1" stop-color="#f91"/></linearGradient></defs><path class="cls-1" d="M6.82,37.14v-1c6.16-.62,9.17-3.77,9.17-9.8V15.33c0-6.7,2.39-9.42,8.29-9.42h1.67V0h-2.3C13.78,0,9.13,4.65,9.13,14.41v9.33c0,6.7-2.3,8.92-9.13,8.92v7.96c6.82,0,9.13,2.22,9.13,8.92v9.33c0,9.76,4.65,14.41,14.53,14.41h2.3v-5.9h-1.67c-5.9,0-8.29-2.72-8.29-9.42v-11.01c0-6.03-3.01-9.17-9.17-9.8Zm84.35-1v1c-6.16,.63-9.17,3.77-9.17,9.8v11.01c0,6.7-2.39,9.42-8.29,9.42h-1.67v5.9h2.3c9.88,0,14.53-4.65,14.53-14.41v-9.33c0-6.7,2.3-8.92,9.13-8.92v-7.96c-6.82,0-9.13-2.22-9.13-8.92V14.41c0-9.76-4.66-14.41-14.53-14.41h-2.3V5.9h1.67c5.9,0,8.29,2.72,8.29,9.42v11.01c0,6.03,3.01,9.17,9.17,9.8Zm-45.24,22.05v-14.04l-9.93,9.93-4.33-4.33,9.92-9.93h-14.04v-6.13h14.04l-9.93-9.93,4.33-4.33,9.93,9.92V15.31h6.13v14.04l9.93-9.93,4.33,4.33-9.92,9.93h14.04v6.13h-14.04l9.93,9.93-4.33,4.33-9.93-9.92v14.04h-6.13Z"/></svg>