<?xml version="1.0" encoding="UTF-8"?><svg id="Layer_1" xmlns="http://www.w3.org/2000/svg" xmlns:xlink="http://www.w3.org/1999/xlink" viewBox="0 0 97.7 97.71"><defs><style>.cls-1{fill:url(#linear-gradient);}</style><linearGradient id="linear-gradient" x1="48.85" y1="97.71" x2="48.85" y2="0" gradientUnits="userSpaceOnUse"><stop offset="0" stop-color="#fff176"/><stop offset=".17" stop-color="#ffe86c"/><stop offset=".45" stop-color="#ffd253"/><stop offset=".8" stop-color="#ffae2a"/><stop offset=".99" stop-color="#f91"/></linearGradient></defs><path class="cls-1" d="M61.47,5.31c-6.81-6.97-17.99-7.1-24.96-.29-.1,.09-.19,.19-.29,.29l-3.8,3.9-5.44-.07c-9.75-.12-17.74,7.69-17.86,17.44,0,.14,0,.28,0,.42l.06,5.44-3.88,3.8c-6.97,6.81-7.1,17.99-.29,24.96,.09,.1,.19,.19,.29,.29l3.89,3.8-.07,5.44c-.12,9.75,7.69,17.74,17.44,17.86,.14,0,.28,0,.42,0l5.44-.06,3.8,3.88c6.81,6.97,17.99,7.1,24.96,.29,.1-.09,.19-.19,.29-.29l3.8-3.89,5.44,.07c9.75,.12,17.74-7.69,17.86-17.44,0-.14,0-.28,0-.42l-.06-5.44,3.88-3.8c6.97-6.81,7.1-17.99,.29-24.96-.09-.1-.19-.19-.29-.29l-3.89-3.8,.07-5.44c.12-9.75-7.69-17.74-17.44-17.86-.14,0-.28,0-.42,0l-5.44,.06-3.8-3.88h0Zm1.75,36.54l-18.32,18.32c-1.19,1.19-3.12,1.2-4.32,0,0,0,0,0,0,0l-9.16-9.16c-1.19-1.19-1.19-3.13,0-4.32s3.13-1.19,4.32,0l7,7,16.16-16.17c1.19-1.19,3.13-1.19,4.32,0s1.19,3.13,0,4.32h0Z"/></svg>