<?xml version="1.0" encoding="UTF-8"?><svg id="Layer_1" xmlns="http://www.w3.org/2000/svg" xmlns:xlink="http://www.w3.org/1999/xlink" viewBox="0 0 90.26 97.52"><defs><style>.cls-1{fill:url(#linear-gradient);}</style><linearGradient id="linear-gradient" x1="45.13" y1="97.52" x2="45.13" y2="0" gradientUnits="userSpaceOnUse"><stop offset="0" stop-color="#fff176"/><stop offset=".17" stop-color="#ffe86c"/><stop offset=".45" stop-color="#ffd253"/><stop offset=".8" stop-color="#ffae2a"/><stop offset=".99" stop-color="#f91"/></linearGradient></defs><path class="cls-1" d="M69.67,55.71c4.04,0,7.88-.86,11.35-2.41l-8.25-19.25-6.19-15.47,23.68-9.47c-10.36-11.37-27.98-12.2-39.35-1.84-8.45,7.69-11.34,19.76-7.3,30.45L5.75,69.25c-6.78,5.65-7.7,15.74-2.04,22.52,5.65,6.78,15.74,7.7,22.52,2.04,.74-.62,1.42-1.3,2.04-2.04l31.54-37.86c3.15,1.19,6.49,1.8,9.85,1.8Zm-8-26.99l-3.69,5.53,5.01-1.67c.81-.27,1.69,.16,1.96,.97,.15,.46,.09,.96-.18,1.36l-3.69,5.53,5.01-1.67,.98,2.94-9.28,3.09c-.81,.27-1.69-.17-1.96-.98-.15-.45-.08-.95,.18-1.35l3.69-5.53-5.01,1.67c-.81,.27-1.69-.16-1.96-.97-.15-.46-.09-.96,.18-1.36l3.69-5.53-5.01,1.67-.98-2.94,9.28-3.09c.81-.27,1.69,.17,1.96,.98,.15,.45,.08,.95-.18,1.35ZM17.05,86.66c-3.42,0-6.19-2.77-6.19-6.19s2.77-6.19,6.19-6.19,6.19,2.77,6.19,6.19-2.77,6.19-6.19,6.19Z"/></svg>